<?xml version="1.0" encoding="UTF-8"?>
<svg id="Layer_2" data-name="Layer 2" xmlns="http://www.w3.org/2000/svg" viewBox="0 0 632.19 767.04">
  <g id="Layer_1-2" data-name="Layer 1">
    <g>
      <path d="M632.19,383.54c0,108.32,.02,216.63,0,324.95,0,30-18.11,52.57-46.32,57.73-3.74,.68-7.62,.77-11.44,.78-172.31,.03-344.61,.04-516.92,.01C23.98,767.01,0,742.83,0,709.21c0-217.13,0-434.27,0-651.4C0,24.19,24,.02,57.52,.01,229.83,0,402.14,0,574.44,.02c29.15,0,51.46,18.08,56.85,46.14,.87,4.54,.86,9.28,.86,13.94,.04,107.82,.03,215.63,.04,323.45Zm-13.89,236.85c0-2.17,0-3.82,0-5.47,0-186,0-372-.02-558,0-2.99-.06-6.04-.66-8.94-4.26-20.77-21.2-34.2-43.15-34.21-172.33-.02-344.66-.02-517,0-25.51,0-43.67,18.22-43.68,43.9-.03,185.83-.03,371.67-.03,557.5,0,1.62,0,3.24,0,5.22H618.3Zm-271.3,50.61c-6.58-1.85-10.83,.14-13.42,6.18-1.26,2.95-3.38,5.53-5.11,8.29-.7-.49-1.05-.61-1.21-.87-1.79-2.8-3.57-5.61-5.32-8.44-3.95-6.42-4.37-6.6-12.64-4.96v37.42q8.46,.85,8.49-7.09c.01-4.82,0-9.64,0-14.45,.33,0,.65-.01,.98-.02,2.98,4.33,5.95,8.66,9.34,13.58,3.51-5.25,6.6-9.88,9.7-14.51,.37,.16,.74,.32,1.11,.49v22.08h8.1v-37.7Zm60.71,37.49v-37.63h-8.54v20.3c-5.42-5.36-9.97-10.84-13.89-16.73-3.04-4.56-6.69-4.51-11.37-3.11,0,11.67,.04,23.13-.03,34.59-.02,3.39,2.24,3.05,4.42,3.09,2.47,.05,4.68,.07,4.6-3.48-.15-6.08-.04-12.17-.04-19.75,5.42,7.05,10.2,12.73,14.34,18.85,2.65,3.91,5.67,5.29,10.53,3.87Zm-140.7-37.35v38.15c7.08-.39,13.93-.12,20.53-1.28,8.94-1.57,14.65-9.38,14.61-18.34-.03-9.02-5.68-16.94-14.62-18.34-6.6-1.03-13.49-.2-20.53-.2Zm-46.24,37.76c4.08-.61,8.53,2.39,10.04-2.81,1.47-5.04,4.38-6.47,9.14-5.76,1.63,.24,3.33,.17,4.98,0,2.71-.27,4.15,.73,5.2,3.37,2.44,6.14,3.18,6.32,10.92,4.49-.29-.92-.51-1.85-.87-2.72-4.46-10.56-9.03-21.07-13.36-31.67-1.11-2.7-2.54-3.78-5.53-3.77-3.11,0-4.72,.98-5.9,3.95-3.43,8.64-7.24,17.13-10.87,25.69-1.2,2.84-2.32,5.72-3.74,9.24Zm135.26-38.04c0,12.05-.05,23.82,.1,35.58,.01,.84,1.41,2.22,2.34,2.39,2.02,.37,4.15,.11,6.32,.11v-38.08h-8.76Z"/>
      <path d="M180.15,241.71c-5.93,.3-7.98-1.21-9.86-6.77-.73-2.16-1.62-4.34-2.82-6.27-6.05-9.73-4.25-25.56,4.24-32.45-2.03-1.27-3.91-2.43-5.78-3.61-.99-.62-1.98-1.23-2.93-1.9-14.28-9.96-14.96-19.4-1.87-30.89,5.75-5.05,12.09-9.4,18.02-14.25,4.26-3.48,8.09-7.19,9.5-13.03,.6-2.46,3.04-4.79,5.19-6.5,18.46-14.63,39.32-23.75,62.9-25.51,14.37-1.07,26.17,3.69,34.38,16.74,6.81,10.83,15.37,20.54,22.53,31.16,10.83,16.08,10.09,28.06-1.81,43.41-1.01,1.3-1.99,2.62-2.97,3.91,9.13,8.37,10.79,23.25,4.02,33.65-1.14,1.75-1.68,3.9-2.49,5.87-1.73,4.25-3.71,8.12-9.74,5.9-2.74,11.85-7.28,22.85-16.46,30.45-10.8,8.95-12.7,20.51-12.47,33.08,.17,9.58,5.15,16.29,13.83,20.22,2.12,.96,4.28,2.08,6.53,2.46,9.13,1.53,14.28,7.16,17.55,15.44,1.88,4.77,4.7,9.16,7.5,14.48-7.32,2.28-14.33,4.57-21.41,6.64-7.09,2.08-13.15,5.44-17.24,11.9-6.22,9.83-6.33,40.59,.01,50.31,3.6,5.53,8.67,9.1,14.95,11.04,7.74,2.39,15.48,4.82,23.21,7.23,.03,.6,.06,1.2,.1,1.8-1.99,.3-3.98,.87-5.96,.87-56,.04-111.99,.03-167.99,.02-13.83,0-27.66,.05-41.5-.02-14.66-.08-22.61-11.58-17.19-25.07,7.77-19.31,15.69-38.55,23.68-57.76,5.42-13.06,15.53-20.01,29.16-23.24,17.95-4.25,35.83-8.92,53.46-14.31,14.76-4.52,19.99-12.91,18.57-28.3-.56-6.05-2.64-11.97-4.29-17.88-.41-1.47-1.64-2.92-2.88-3.91-10.78-8.67-17.77-19.69-20.95-33.15-.15-.63-.5-1.21-.74-1.78Zm45.21,49.89c2.7,24.56-4.71,42.01-27.91,50.61,10.23,20.55,20.24,40.65,30.24,60.74,.44-.06,.89-.12,1.33-.18,2.38-10.94,4.83-21.86,7.03-32.84,.24-1.18-.82-2.8-1.62-3.98-2.7-4-5.61-7.85-8.33-11.84-2.66-3.92-1.58-7.18,2.93-7.44,7.63-.43,15.31-.42,22.94,0,4.25,.24,5.37,3.5,2.96,7.16-1.92,2.92-3.8,5.92-6.1,8.52-3.62,4.08-4.6,8.22-3.04,13.64,2.41,8.4,3.98,17.04,5.91,25.58,.41,.05,.82,.11,1.23,.16,9.37-20.02,18.74-40.04,28.28-60.4-22.38-9.26-28.31-26.98-25.71-50.04-10.26,8.18-19.67,8.02-30.15,.29Z"/>
      <path d="M322.61,479.78c.82-2.01,1.36-3.74,2.2-5.33,4.56-8.7,9.35-17.28,13.67-26.09,.92-1.87,.4-4.54,.22-6.81-.09-1.08-1.21-2.06-1.41-3.16-1.6-9.2-7.84-12.77-16.3-14.55-6.81-1.44-13.36-4.08-20.08-5.98-4.13-1.17-6.09-3.45-5.92-7.9,.23-5.99,.19-12-.03-17.99-.17-4.4,1.72-6.7,5.89-7.91,9.57-2.78,19.12-5.67,28.54-8.9,1.98-.68,3.52-2.88,5.03-4.6,.72-.82,.66-2.28,1.31-3.21,5.27-7.59,3.56-14.52-1.15-21.77-3.88-5.98-6.72-12.62-10.19-18.88-2-3.6-1.63-6.5,1.39-9.37,4.46-4.25,8.8-8.63,13.05-13.09,2.89-3.03,5.85-3.2,9.41-1.27,8.92,4.85,17.86,9.67,26.96,14.18,1.72,.85,4.28,.53,6.32,.12,2.07-.42,3.91-2.05,5.98-2.42,6.93-1.23,9.5-5.74,11-12.14,1.9-8.08,4.94-15.88,7.23-23.87,1.05-3.66,3.3-5.24,6.86-5.27,6.5-.04,12.99,.03,19.49,.01,3.9-.01,6.03,1.85,7.13,5.61,2.79,9.58,5.64,19.16,8.91,28.59,.73,2.1,3.21,3.63,4.97,5.32,.44,.42,1.31,.36,1.84,.72,8.35,5.67,15.99,4.26,23.99-1.32,5.55-3.88,12.02-6.43,18.04-9.65,3.42-1.83,6.3-1.4,9.01,1.4,4.41,4.54,8.88,9.03,13.41,13.45,2.64,2.58,3.04,5.27,1.28,8.54-4.81,8.94-9.67,17.87-14.11,27-.98,2.01-.36,4.83-.34,7.28,0,.6,.67,1.18,.79,1.81,1.85,10.01,8.46,14.28,17.97,16.04,6.33,1.17,12.35,3.95,18.61,5.61,4.42,1.17,6.43,3.54,6.29,8.15-.19,5.99-.21,12,0,17.99,.15,4.23-1.77,6.45-5.63,7.62-9.56,2.88-19.04,6.03-28.65,8.73-3.16,.89-4.91,2.42-5.55,5.53-.23,1.13-.54,2.36-1.2,3.27-5.13,7.14-3.32,13.64,1.05,20.46,3.85,6.01,6.69,12.66,10.25,18.86,2.26,3.93,2.04,7.08-1.31,10.24-4.36,4.11-8.62,8.35-12.75,12.7-2.85,3.01-5.74,3.43-9.37,1.45-8.92-4.85-17.86-9.69-26.97-14.16-1.85-.91-4.51-.3-6.79-.14-.93,.06-1.77,1.03-2.72,1.18-9.74,1.52-13.25,8.25-15.12,16.98-1.42,6.65-3.99,13.05-5.78,19.63-1.15,4.25-3.65,5.98-7.96,5.86-5.99-.16-12-.15-17.99-.02-4.33,.1-6.74-1.78-7.95-5.95-2.78-9.59-5.66-19.15-8.85-28.61-.63-1.87-2.68-3.36-4.3-4.76-.82-.71-2.31-.61-3.22-1.27-7.99-5.74-15.19-3.46-22.69,1.41-5.84,3.79-12.33,6.56-18.47,9.9-3.41,1.86-6.26,1.48-8.99-1.32-4.41-4.54-9.01-8.9-13.4-13.46-1.2-1.25-1.94-2.94-2.92-4.49Zm53.09-78.98c-.13,25.72,20.63,46.79,46.37,47.06,25.76,.27,46.94-20.78,47.12-46.86,.17-25.57-20.87-46.8-46.53-46.95-25.92-.15-46.82,20.66-46.96,46.75Z"/>
      <path d="M275.7,700.69c0-6.73-.07-12.98,.08-19.22,.02-.87,1.26-2.53,1.68-2.45,4.08,.75,8.66,.9,11.99,2.98,3.7,2.31,4.01,7,2.77,11.3-1.3,4.51-4.6,6.77-9.05,7.35-2.11,.27-4.28,.05-7.47,.05Z"/>
      <path d="M236.71,692.02c1.13-2.82,1.98-4.96,2.85-7.08,.3-.73,.7-1.43,1.52-3.07,1.53,3.67,2.74,6.58,4.23,10.14h-8.6Z"/>
    </g>
  </g>
</svg>